# xmcd
#
# Track frame offsets: 
#        150
#        22826
#        38261
#        51551
#        63319
#        95502
#        132369
#        151246
#        170353
#        188025
#        202983
#        224601
#
# Disc length: 3392 seconds
#
# Revision: 1
# Processed by: cddbd v1.5.2PL0 Copyright (c) Steve Scherf et al.
# Submitted via: ExactAudioCopy v0.99pb1
#
DISCID=9d0d3e0c
DTITLE=Roy Buchanan - Loading Zone
DYEAR=2003
DGENRE=Blues-Rock
TTITLE0=The Heat Of The Battle
TTITLE1=Hidden
TTITLE2=The Circle
TTITLE3=Adventures Of Brer Rabbit And Tar Baby
TTITLE4=Ramon's Blues
TTITLE5=Green Onions
TTITLE6=Judy
TTITLE7=Done Your Daddy Dirty
TTITLE8=Your Love
TTITLE9=Ain't No Busines
TTITLE10=Beek Drinking Woman
TTITLE11=When A Guitar Plays The Blues
EXTD=
EXTT0=
EXTT1=
EXTT2=
EXTT3=
EXTT4=
EXTT5=
EXTT6=
EXTT7=
EXTT8=
EXTT9=
EXTT10=
EXTT11=
PLAYORDER=
